<svg id="Layer_1" data-name="Layer 1" xmlns="http://www.w3.org/2000/svg" viewBox="0 0 860.52 87.61"><defs><style>.cls-1,.cls-2,.cls-3,.cls-4{fill:none;}.cls-1,.cls-2,.cls-3{stroke:#000;stroke-miterlimit:10;}.cls-1{stroke-width:0.5px;}.cls-2{stroke-width:4px;}.cls-3{stroke-width:8px;}</style></defs><title>W</title><path id="Path_353" data-name="Path 353" class="cls-1" d="M164.89,388h0s-11.3,7.28-16.26,5.1S145,379.33,145,379.33a93.53,93.53,0,0,0,17-6.19c5.09-2.49,10-11.71,4.7-15.26-4.08-2.29-15.84.32-21.71,8-2.44,3.21-7.29,14.57-6.09,23.08.68,4.81,2.86,8.71,9.35,8.62s16.59-9,16.59-9" transform="translate(-56.53 -333.6)"/><path id="Path_354" data-name="Path 354" class="cls-1" d="M145.58,376.37c.32.69,9.66-2.21,13.5-6.12.62-.61,4-5.55,2.92-8.16-.35-.84-4.56-3.07-8.94.4S145.58,376.37,145.58,376.37Z" transform="translate(-56.53 -333.6)"/><path id="Path_355" data-name="Path 355" class="cls-1" d="M177.24,339.74l13.38-3.34s-6.55,35.16-9.85,48.66,8,4.61,8,4.61-5.87,6.16-9.58,7.91-8.18-1.3-5.37-10.74,4.48-19,8.34-34.75S177.24,339.74,177.24,339.74Z" transform="translate(-56.53 -333.6)"/><path id="Path_356" data-name="Path 356" class="cls-1" d="M224.65,369l2.07-10.76s-8.63-3.55-15.61.5-10.69,11.9-12.32,15.72c-3.17,7.42-1.42,17.85,1.35,20.59,1.19,1.26,6.69,4,11.7,2.46,6.75-2.2,11-5.75,12.81-9.29,0,0-11.87,8.46-18.33,4-1.89-1.28-2.89-5.38-3-10.87.35-10.12,4.85-22,15.57-19.89,6.69.59,5.74,7.54,5.74,7.54" transform="translate(-56.53 -333.6)"/><path id="Path_358" data-name="Path 358" class="cls-1" d="M271.21,397.24s6.1-29,6-32.94-7.15,0-7.15,0,4.84-4.92,8.36-6.57,5.7,0,5.7,0l-2.35,15.89s4.89-7.88,10.69-11.85,14.31-5.33,14-3.44-4.22,15.29-4.22,15.29,5.84-7.75,12.09-11.85,14.58-6.43,13.72-3.44-7.73,27.13-7,32.37,8.34-1.19,8.34-1.19-12.77,13.14-15.07,6.94c-1.08-2.93,1.36-9.3,2.85-16.47,1.59-7.64,3.31-16.35,3-17s-7.89,1.38-13.69,9.77-9.09,23.73-9.09,23.73l-5.49.79s4.84-24.12,6.6-31.88-10.26,1.05-14.34,9.09-8,22-8,22Z" transform="translate(-56.53 -333.6)"/><path id="Path_359" data-name="Path 359" class="cls-1" d="M361.08,388h0s-11.3,7.28-16.27,5.1-3.58-13.78-3.58-13.78a93.43,93.43,0,0,0,17-6.19c5.1-2.49,10-11.71,4.7-15.26-4.08-2.29-15.84.32-21.7,8-2.45,3.21-7.29,14.57-6.09,23.08.67,4.81,2.86,8.71,9.34,8.62s16.6-9,16.6-9" transform="translate(-56.53 -333.6)"/><path id="Path_360" data-name="Path 360" class="cls-1" d="M341.76,376.37c.33.69,10.41-2.21,14.25-6.12,1-1.13,3.3-5.55,2.18-8.16-.35-.84-4.56-3.07-8.95.4S341.76,376.37,341.76,376.37Z" transform="translate(-56.53 -333.6)"/><path id="Path_362" data-name="Path 362" class="cls-1" d="M230.77,387.32c.79,6.05,4.86,10.14,8.88,10.31,6.35.29,14.31-1.35,19.91-11.93s6.5-21.21-.4-27.11c-3.92-3.35-16.06-1.6-23.17,7.46C231.18,372.18,230.53,385.49,230.77,387.32Z" transform="translate(-56.53 -333.6)"/><path id="Path_363" data-name="Path 363" class="cls-1" d="M424.43,385.76c.47,5.27,2.88,8.84,5.25,9,2.1.14,9.14.43,12.93-10.79,3.31-9.21,2.71-18.08-1.37-23.22-2.32-2.92-8.1-1.38-12.3,4.88S424.28,384.16,424.43,385.76Z" transform="translate(-56.53 -333.6)"/><path id="Path_364" data-name="Path 364" class="cls-1" d="M410.69,387.94s-9,8.41-10.24,2.37,5.12-26.52,5.12-26.52h9l.89-3.78h-9.85l3.76-17.17L403.26,346l-2.81,14-8,3.78h8s-7.53,26.6-5,32.63S410.69,387.94,410.69,387.94Z" transform="translate(-56.53 -333.6)"/><path id="Path_365" data-name="Path 365" class="cls-1" d="M486.38,339.1s9,2.52,8.14,6.14-10.58,41.07-14.07,46.43c-1.24,2.63-4.54,3.52-4.54,3.52v1.2h17.46v-1.2s-7.14-.2-6.3-4.4c1.12-5.56,10.27-41,10.27-41l13.41,48.36h1.36l29.79-50.7s-.64,30.93-3.3,43.16c-.74,3.43-7.35,4.55-7.35,4.55v1.2h21.11v-1.2s-7.19-1.33-7-4.93c.41-8.38.72-36,3.3-45.3,1-3.56,3.83-4.83,6.17-5.63a4.84,4.84,0,0,1,1.05-.24h-14l-28.53,47.8-12.82-47.8Z" transform="translate(-56.53 -333.6)"/><path id="Path_366" data-name="Path 366" class="cls-1" d="M558.3,365.26s5.55-5.53,8.94-7.38,4.62.7,4.62.7v15.78c0,8.46-.71,16.25,0,17.34s7.92-5.43,13-13.88,7.23-19.24,7.23-19.24l6-.7s-5.27,22.44-13.26,40.55c-3.37,7.63-7,14.52-10.74,18.11-11.85,11.39-17.51-2.78-17.51-2.78l4.39-3.41s1.58,9.23,8.68,6.19,15.12-34.07,15.18-34-11.76,19.17-18.45,14.85c-4.13-2.67.63-23.08,0-31S558.3,365.26,558.3,365.26Z" transform="translate(-56.53 -333.6)"/><path id="Path_368" data-name="Path 368" class="cls-1" d="M237.16,385.76c.47,5.27,2.88,8.84,5.26,9,2.1.14,9.14.43,12.92-10.79,3.32-9.21,2.71-18.08-1.37-23.22-2.32-2.92-8.1-1.38-12.3,4.88S237,384.16,237.16,385.76Z" transform="translate(-56.53 -333.6)"/><path id="Path_369" data-name="Path 369" class="cls-1" d="M418,387.32c.79,6.05,4.86,10.14,8.88,10.31,6.34.29,14.3-1.35,19.9-11.93s6.5-21.21-.4-27.11c-3.91-3.35-16.05-1.6-23.17,7.46C418.44,372.18,417.8,385.49,418,387.32Z" transform="translate(-56.53 -333.6)"/><path id="Path_367" data-name="Path 367" class="cls-1" d="M630.37,339.1s35.44-4.93,38.87,2.64c4.61,3.07,2,18.41-4.09,24.14-11.39,11.12-20.38,3.92-20.38,3.92v-1.28s14.12,3.14,18.35-9.29c6.54-23.3-17.1-17.49-17.1-17.49s-7.86,34.33-9.68,44.41,7.82,8.14,7.82,8.14l-.07,2.12H622l.25-1.7s7.87,2.5,9.89-11.4c1.15-7.87,3.65-25.34,5.87-35.61s-7.26-5.17-7.54-7.57C630.44,339.66,630.37,339.1,630.37,339.1Z" transform="translate(-56.53 -333.6)"/><path id="Path_370" data-name="Path 370" class="cls-1" d="M674.86,387.32c.79,6.05,4.86,10.14,8.88,10.31,6.34.29,14.31-1.35,19.91-11.93s6.5-21.21-.4-27.11c-3.92-3.35-16.06-1.6-23.18,7.46C675.27,372.18,674.62,385.49,674.86,387.32Z" transform="translate(-56.53 -333.6)"/><path id="Path_371" data-name="Path 371" class="cls-1" d="M681.25,385.76c.47,5.27,2.88,8.84,5.26,9,2.09.14,9.13.43,12.92-10.79,3.31-9.21,2.71-18.08-1.37-23.22-2.32-2.92-8.1-1.38-12.3,4.88S681.1,384.16,681.25,385.76Z" transform="translate(-56.53 -333.6)"/><path id="Path_372" data-name="Path 372" class="cls-1" d="M804.45,385.71c.48,5.27,4.07,8.82,6.5,9,2.15.15,8.1.5,12-10.72,3.4-9.21,2.78-18.08-1.4-23.22-2.37-2.91-8.3-1.38-12.6,4.88S804.31,384.11,804.45,385.71Z" transform="translate(-56.53 -333.6)"/><path id="Path_373" data-name="Path 373" class="cls-1" d="M797.92,387.32c.79,6.05,4.86,10.14,8.88,10.31,6.35.29,14.31-1.35,19.91-11.93s6.5-21.21-.4-27.11c-3.92-3.35-16.06-1.6-23.17,7.46C798.33,372.18,797.68,385.49,797.92,387.32Z" transform="translate(-56.53 -333.6)"/><path id="Path_374" data-name="Path 374" class="cls-1" d="M890.06,385.71c.48,5.27,4.06,8.82,6.5,9,2.15.15,8.1.5,12-10.72,3.4-9.21,2.78-18.08-1.4-23.22-2.38-2.91-8.3-1.38-12.61,4.88S889.91,384.11,890.06,385.71Z" transform="translate(-56.53 -333.6)"/><path id="Path_375" data-name="Path 375" class="cls-1" d="M883.53,387.32c.79,6.05,4.86,10.14,8.88,10.31,6.34.29,14.3-1.35,19.9-11.93s6.5-21.21-.4-27.11c-3.91-3.35-16-1.6-23.17,7.46C883.93,372.18,883.29,385.49,883.53,387.32Z" transform="translate(-56.53 -333.6)"/><path id="Path_376" data-name="Path 376" class="cls-1" d="M767.39,387.94s-9,8.41-10.24,2.37,5.12-26.52,5.12-26.52h9l.89-3.78h-9.85L766,342.84,760,346l-2.81,14-8,3.78h8s-7.53,26.6-5,32.63S767.39,387.94,767.39,387.94Z" transform="translate(-56.53 -333.6)"/><path id="Path_377" data-name="Path 377" class="cls-1" d="M715.62,397.66v-1.29s6.82-22.31,6.49-30.19-7.78-1.35-7.78-1.35,5.08-4.8,8.65-6.62,5.62-.67,5.62-.67l-2.72,16.58s7.88-12.07,12.12-15.91,5.94-.67,5.94-.67l-2,8.64s-5.17-3.26-10.3,4-10.25,25-10.25,25v1.15Z" transform="translate(-56.53 -333.6)"/><path id="Path_378" data-name="Path 378" class="cls-1" d="M808.78,337a9.84,9.84,0,0,0-9.21-.74c-4.94,2.26-7.25,4.56-10.56,9.76s-5.71,13.8-5.71,13.8l-5.89,3.82v1.14h5.89s-3.66,31-8.36,42.57-11.65,6.55-11.65,6.55l-2.55,6.25s9.26,3.86,16.67-10S789,364.74,789,364.74h9.53l1-5-9.2,1.14s1.41-13.44,5.27-17.93,10.17,0,10.17,0Z" transform="translate(-56.53 -333.6)"/><path id="Path_379" data-name="Path 379" class="cls-1" d="M841.84,339.36,856,336.25s-9.37,41.62-11.24,51.21,8.57,1.83,8.57,1.83l.62,1s-17.48,16.15-16.34,1.24c-.2-.12,9-36.89,10.32-45.22s-6.3-4-6.13-5.94Z" transform="translate(-56.53 -333.6)"/><g id="Ellipse_25" data-name="Ellipse 25"><ellipse class="cls-1" cx="877.62" cy="340.76" rx="5.35" ry="4.46" transform="translate(130.36 646.88) rotate(-64.02)"/><ellipse class="cls-1" cx="877.62" cy="340.76" rx="4.35" ry="3.46" transform="translate(130.36 646.88) rotate(-64.02)"/></g><path id="Path_380" data-name="Path 380" class="cls-1" d="M862.86,364.76s12.82-11,13.44-6.24-8,30.09-6.43,32.67,7.87-1.92,7.87-1.92l.79,1s-15.77,12.74-14.79,3.46c-.17-.08,5-23.79,6.13-29s-7.16,2.05-7,.83C862.87,365.31,862.87,365,862.86,364.76Z" transform="translate(-56.53 -333.6)"/><polyline class="cls-1" points="283.97 58.9 282.97 47.9 285.97 34.9 293.97 26.9 302.97 25.9 304.97 29.9 301.97 36.9 291.97 41.9 286.62 43.44 280.97 53.9 283.97 59.9"/><line class="cls-1" x1="285.97" y1="61.9" x2="298.66" y2="58.49"/><path class="cls-1" d="M248.71,357.69,238.5,365.5l-4,14,1,13,10.37,2.28,8.63-5.28,6-12v-7l-4-11" transform="translate(-56.53 -333.6)"/><polyline class="cls-1" points="265.97 59.9 259.97 60.9 266.97 26.9 259.97 28.9 252.97 33.9 246.97 40.9 236.97 61.9 244.97 26.9 235.97 28.9 226.75 39.52 216.97 60.9 224.97 25.9 217.56 27"/><polyline class="cls-1" points="161.97 58.9 161.97 58.9 146.97 59.9 144.97 48.9 146.97 37.9 152.97 28.9 162.97 25.9 165.97 27.9 169 27.59"/><polyline class="cls-1" points="132.97 4.9 126.97 5.9 127.97 22.9 125.97 30.9 123.97 40.9 120.97 52.9 119.97 59.9 120.97 61.9 124.97 59.9"/><polyline class="cls-1" points="102.97 57.9 94.97 61.9 85.97 57.9 85.97 55.59 85.97 47.9 88.97 35.9 97.97 25.9 105.97 25.9 108.97 30.9 103.97 38.9 93.97 42.9 87.97 44.9 86.97 54.9 93.97 62.9 101.97 58.9"/><polyline class="cls-1" points="833.97 34.9 834.97 31.9 842.46 25.71 851.97 24.9 857.97 36.9 855.97 44.9 851.97 56.9 839.16 63.51 831.97 58.9 830.97 48.9 831.97 38.9 834.97 31.9"/><polyline class="cls-1" points="805.97 30.9 816.97 25.9 809.97 59.9 812.97 60.9 819.22 56.99 820.97 55.9"/><polyline class="cls-1" points="784.97 6.9 787.39 6.68 795.97 5.9 784.97 59.9 789.97 60.9 796.97 56.9"/><polyline class="cls-1" points="768.97 26.9 770.97 40.9 766.97 54.9 758.24 62.81 747.97 58.9 744.97 46.9 747.97 34.9 755.97 26.9 759.97 24.9 768.97 26.9"/><polyline class="cls-1" points="704.97 83.9 716.97 79.9 723.97 60.9 727.97 34.9 724.64 29.29 736.97 28.9 729.97 22.9 732.97 15.9 739.73 5.48 747.97 5.9 750 7.93"/><polyline class="cls-1" points="705.97 13.9 702.97 27.9 698.97 28.9 708.97 27.9 702.97 30.9 696.97 60.9 701.97 59.9"/><polyline class="cls-1" points="662.78 27.02 668.97 25.9 661.97 60.9 668.97 44.9 678.97 28.9 682.97 28.9 685.43 27.29"/><polyline class="cls-1" points="631.93 25.7 641.97 24.9 645.97 28.9 648.97 42.9 643.97 53.9 634.94 61.17 623.97 59.9 622.97 40.9 626.97 33.9 629.97 28.9"/><polyline class="cls-1" points="569.82 61.17 583.66 61.17 575.97 57.9 583.97 8.9 576.64 5.48 607.97 6.9 611.97 15.9 608.97 29.9 597.97 35.9 590.97 35.9"/><polyline class="cls-1" points="505.5 28.19 511.97 26.9 511.97 60.9 518.97 58.9 527.97 46.9 537.97 27.9 522.97 71.9 518.97 78.9 512.97 84.9 501.97 80.9"/><polyline class="cls-1" points="422.23 61.17 431.94 61.17 427.97 55.9 439.97 10.9 434.17 7.17 441.97 6.9 454.97 60.9 486.97 8.9 491.97 6.9 485.97 55.9 479.97 60.9 491.97 61.17"/><polyline class="cls-1" points="368.99 33.33 370.97 30.9 382.54 24.53 389.97 30.9 389.97 40.9 387.97 51.9 374.97 62.9 364.97 54.9 364.97 45.9 367.97 37.9"/><polyline class="cls-1" points="349.05 12.54 342.97 28.9 350.97 28.9 344.97 31.9 339.97 59.9 347.42 59.9"/><path class="cls-1" d="M874.49,339.05l1-1.7a5.85,5.85,0,0,1,3-.85h1c1,0,1,0,1.59.85l1,3.4c-.29.8.31,2.24-.6,2.55l-1,.85c-.44.15-1,.85-4.93.85l-2-1.7c-.69-.24,0-2,0-2.68v0A3,3,0,0,1,874.49,339.05Z" transform="translate(-56.53 -333.6)"/><path id="Path_351" data-name="Path 351" class="cls-2" d="M59,336H79s-6.85,5.75-6,14,6.25,34.8,6.25,34.8L103.86,339,117.8,384.8s12.39-30.12,18.82-37.05L137,341l-3-2h11.19a2.87,2.87,0,0,0-2,.84L142,341c-1,3-3.94,5.44-4.67,7.52-3.16,8.3-20.7,48.86-20.7,48.86H113l-12-47-23.93,47H73.29s-4.4-45-5.05-51.11" transform="translate(-56.53 -333.6)"/><path class="cls-3" d="M140,341l-24.64,54.2a.3.3,0,0,1-.57-.06L103,346,77,388l-6.74-39.5-.34-2.29C68,342,74,336,57,338" transform="translate(-56.53 -333.6)"/><line class="cls-4" x1="87.47" y1="5.4" x2="58.47" y2="66.4"/></svg>