<svg id="Layer_1" data-name="Layer 1" xmlns="http://www.w3.org/2000/svg" viewBox="0 0 950.93 81.96"><defs><style>.cls-1{fill:#fff;}</style></defs><title>Welcome</title><g id="WELCOME"><path id="W" class="cls-1" d="M128.48,424.35q1.49,6.79,4.89,19.38,6.36,23.59,7.07,25.93.34-.78,7.81-19.49,3.83-9.65,6.05-15.9a39.44,39.44,0,0,0,1.57-4.88c0-.21,0-.4,0-.59a1.16,1.16,0,0,0-.69-1.07q-.67-.37-5.84-.57l.51-2.38c3.54.18,6.45.27,8.71.27s4.79-.09,7.35-.27l-.47,2.38a11.27,11.27,0,0,0-3.23.41,3.08,3.08,0,0,0-1,1q-.39.51-4.65,10.55-3.63,8.6-9.65,23.43-5,12.39-6.72,18.09h-3.86l-1.45-7q-1.09-4.77-4-15.78t-5.75-21.29q-2.46,4.49-17.3,33.32a76.21,76.21,0,0,0-4.73,10.7h-4Q99,474,96.92,454.78L95,437.36q-1-8.08-1.45-8.95a1.6,1.6,0,0,0-.66-.7,16,16,0,0,0-4.45-.55l.5-2.38q4.3.2,8.44.2c2.92,0,6.22-.07,9.92-.2l-.47,2.38a20.49,20.49,0,0,0-4.41.32,2.22,2.22,0,0,0-1.23.82,3.16,3.16,0,0,0-.37,1.75q0,.68.27,5,.44,6.45,1.1,12.15,1.64,14.81,2.34,21.88l7.93-15.39,6.64-13.05q3.28-6.53,5.35-10.9,1.1-2.34,2.46-5.43Z" transform="translate(-88.45 -418.32)"/><path id="E" class="cls-1" d="M184.73,471.38l.51,1.53a36.36,36.36,0,0,1-8.88,6.17,18.21,18.21,0,0,1-7.45,2.07,10,10,0,0,1-4.2-1,7.71,7.71,0,0,1-3.47-3.22,12.46,12.46,0,0,1-1.27-6.21,36.64,36.64,0,0,1,1.48-9.75,38.56,38.56,0,0,1,3-8,16.29,16.29,0,0,1,4.06-4.72,35.23,35.23,0,0,1,7.58-4.81,12.81,12.81,0,0,1,5.43-1.33,7.36,7.36,0,0,1,4.83,1.57,5.36,5.36,0,0,1,1.89,4.37,10.68,10.68,0,0,1-3.16,7.46,21.1,21.1,0,0,1-5.73,3.71,50.63,50.63,0,0,1-7.64,2.86l-5.07,1.21a35.76,35.76,0,0,0-.74,6.25q0,3.83,1.69,5.74a5.4,5.4,0,0,0,4.23,1.91,14,14,0,0,0,5.07-1.11A42.67,42.67,0,0,0,184.73,471.38Zm-17.85-10a33.22,33.22,0,0,0,8.6-2.71,12.55,12.55,0,0,0,5.21-4.34,9.19,9.19,0,0,0,1.62-4.9,4.31,4.31,0,0,0-1-3.05,3.43,3.43,0,0,0-2.6-1,9.1,9.1,0,0,0-4.59,1.35,9.65,9.65,0,0,0-3.73,4A60.87,60.87,0,0,0,166.88,461.34Z" transform="translate(-88.45 -418.32)"/><path id="L" class="cls-1" d="M207.31,471.66l.67,1.6q-1,.9-4.77,3.61a32.84,32.84,0,0,1-6.09,3.69,5.19,5.19,0,0,1-2.11.51,2.13,2.13,0,0,1-1.74-.8,4,4,0,0,1-.65-2.52,15,15,0,0,1,.28-2.85q.39-2.36,3.71-17.07,2.38-10.54,3-13.79,1.56-7.94,2.22-12.78a13.31,13.31,0,0,0,.16-2.07,2,2,0,0,0-.53-1.54,3.57,3.57,0,0,0-2.17-.45l-3.59,0,.2-1.6a46.18,46.18,0,0,0,6.52-1.09,46.93,46.93,0,0,0,6-2l1,.62q-.78,3.56-5.7,26.76-4,18.8-4.57,23.05a8.13,8.13,0,0,0-.12,1.29,1.94,1.94,0,0,0,.39,1.28,1.1,1.1,0,0,0,.86.47,1.92,1.92,0,0,0,.78-.19,22.53,22.53,0,0,0,3-1.76Z" transform="translate(-88.45 -418.32)"/><path id="C" class="cls-1" d="M240.24,471.11l.59,1.72a75.24,75.24,0,0,1-6.29,4.72,27.11,27.11,0,0,1-6,3,12.87,12.87,0,0,1-4.26.71,10.89,10.89,0,0,1-5.07-1.18,7.74,7.74,0,0,1-3.47-3.9,16.48,16.48,0,0,1-1.22-6.76,36.44,36.44,0,0,1,1.14-8.85,27.74,27.74,0,0,1,3-7.58,18.26,18.26,0,0,1,3.66-4.55,36.14,36.14,0,0,1,9-5.35,13.33,13.33,0,0,1,5.35-1.17,12.57,12.57,0,0,1,3.67.51,10,10,0,0,1,3.09,1.56,84.88,84.88,0,0,0-1.8,10.08h-1.84l0-4.26a3.27,3.27,0,0,0-.43-1.91,4.54,4.54,0,0,0-2.17-1.37,10.88,10.88,0,0,0-3.88-.63,9.85,9.85,0,0,0-6.43,2c-1.63,1.32-3,3.89-4.24,7.69a41.9,41.9,0,0,0-2.22,12.27,11.85,11.85,0,0,0,1.36,6.29,6.1,6.1,0,0,0,5.51,3,11.76,11.76,0,0,0,3.54-.56,21.44,21.44,0,0,0,4.2-1.94Q236.49,473.77,240.24,471.11Z" transform="translate(-88.45 -418.32)"/><path id="O" class="cls-1" d="M246,469a38,38,0,0,1,1-9,27.16,27.16,0,0,1,2.81-7.29,22.63,22.63,0,0,1,4.42-5.45,21.67,21.67,0,0,1,5.89-3.79,15.87,15.87,0,0,1,6.33-1.42,12.09,12.09,0,0,1,5.35,1.23,8.73,8.73,0,0,1,3.95,3.82,15.08,15.08,0,0,1,1.41,7.13,32.43,32.43,0,0,1-2.39,12A28.59,28.59,0,0,1,270.4,474a21.14,21.14,0,0,1-6.35,5,16.27,16.27,0,0,1-7.75,2.09,9.73,9.73,0,0,1-7.5-3C246.92,476.06,246,473,246,469Zm6.22-.55a15.37,15.37,0,0,0,.82,5.71,6.06,6.06,0,0,0,2.48,3,8.06,8.06,0,0,0,8.36-.31,13.53,13.53,0,0,0,3.67-4.88,28.86,28.86,0,0,0,2.63-8.38,51.85,51.85,0,0,0,.82-8.65q0-4.89-1.79-7.44a6.07,6.07,0,0,0-5.31-2.56q-5.64,0-8.66,6.72T252.2,468.45Z" transform="translate(-88.45 -418.32)"/><path id="M" class="cls-1" d="M284.15,480.68l-.55-.67,2.23-8q1.25-4.77,2.19-9.26,1.2-5.79,1.79-10.12a24.92,24.92,0,0,0,.28-3.05,2.78,2.78,0,0,0-.34-1.58,1,1,0,0,0-.8-.45,4.07,4.07,0,0,0-1.72.63,37.05,37.05,0,0,0-4.41,2.69l-.55-1.68c1.25-1,3-2.19,5.14-3.61a32.19,32.19,0,0,1,5.45-3,6.15,6.15,0,0,1,1.95-.39,1.68,1.68,0,0,1,1.27.47,2.08,2.08,0,0,1,.45,1.48,16.37,16.37,0,0,1-.31,2.7c-.05.36-.84,4.14-2.34,11.33a68.52,68.52,0,0,1,6.32-7.74,38.57,38.57,0,0,1,8.79-6.6,11.81,11.81,0,0,1,5.28-1.56,2,2,0,0,1,1.44.43,1.74,1.74,0,0,1,.47,1.33,23.88,23.88,0,0,1-.43,4q-.31,1.68-2.27,10.27a52,52,0,0,1,8.11-9,37.47,37.47,0,0,1,8.61-5.64,13,13,0,0,1,5-1.37,2,2,0,0,1,1.45.47,2,2,0,0,1,.47,1.48,19.52,19.52,0,0,1-.51,3.6q-.86,4.14-3.36,13.4-2.93,10.89-2.93,13.2a1.85,1.85,0,0,0,.33,1.19,1,1,0,0,0,.76.41,2.93,2.93,0,0,0,1.14-.27,12.85,12.85,0,0,0,2.3-1.25l3.05-2.11.62,1.52a60.72,60.72,0,0,1-5.13,3.75,33.13,33.13,0,0,1-5.41,3.09,4.92,4.92,0,0,1-1.8.39,2.11,2.11,0,0,1-1.6-.78,3.15,3.15,0,0,1-.71-2.19,12.76,12.76,0,0,1,.16-2c.1-.63.45-2,1-4s1.51-5.67,2.79-10.8q1.56-6.41,2-9.18c.27-1.84.41-2.93.41-3.24a1.63,1.63,0,0,0-.33-1.09,1,1,0,0,0-.8-.39,8.77,8.77,0,0,0-3.36,1.21,24,24,0,0,0-5.35,4.12,29.08,29.08,0,0,0-8.21,13.32,113.45,113.45,0,0,0-2.93,13.65c-1.58.26-3.41.64-5.46,1.13l-.55-.54q1.83-6.53,3.57-14.2t2.41-12.36a40.3,40.3,0,0,0,.46-4.54,2,2,0,0,0-.39-1.32.92.92,0,0,0-.78-.36,5.76,5.76,0,0,0-2.61.86,21.31,21.31,0,0,0-5.2,4,32.06,32.06,0,0,0-8.44,14.65q-1.37,4.84-2.77,12.57Q286.5,480.13,284.15,480.68Z" transform="translate(-88.45 -418.32)"/><path id="e-2" data-name="e" class="cls-1" d="M368.41,471.38l.5,1.53a36.36,36.36,0,0,1-8.88,6.17,18.21,18.21,0,0,1-7.44,2.07,9.9,9.9,0,0,1-4.2-1,7.78,7.78,0,0,1-3.48-3.22,12.46,12.46,0,0,1-1.27-6.21,36.64,36.64,0,0,1,1.48-9.75,38.56,38.56,0,0,1,3-8,16.18,16.18,0,0,1,4.07-4.72,35.17,35.17,0,0,1,7.57-4.81,12.81,12.81,0,0,1,5.43-1.33,7.36,7.36,0,0,1,4.83,1.57,5.36,5.36,0,0,1,1.89,4.37,10.68,10.68,0,0,1-3.16,7.46,20.79,20.79,0,0,1-5.73,3.71,50.63,50.63,0,0,1-7.64,2.86l-5.07,1.21a36.77,36.77,0,0,0-.74,6.25q0,3.83,1.69,5.74a5.42,5.42,0,0,0,4.23,1.91,14,14,0,0,0,5.07-1.11A43,43,0,0,0,368.41,471.38Zm-17.86-10a33.22,33.22,0,0,0,8.6-2.71,12.55,12.55,0,0,0,5.21-4.34,9.19,9.19,0,0,0,1.62-4.9,4.31,4.31,0,0,0-1-3.05,3.43,3.43,0,0,0-2.6-1,9.1,9.1,0,0,0-4.59,1.35,9.65,9.65,0,0,0-3.73,4A60.87,60.87,0,0,0,350.55,461.34Z" transform="translate(-88.45 -418.32)"/><path id="T" class="cls-1" d="M440.23,480.34l.2-2.38c3.57-.21,5.7-.49,6.41-.86a1.52,1.52,0,0,0,.62-.58c.37-.58,1-3.42,2-8.52q.75-3.87,3.63-20.55,2-11.06,2.82-18.79-4.92,0-11.25.24a9.69,9.69,0,0,0-3.64.55,2.47,2.47,0,0,0-.93,1.21A55.33,55.33,0,0,0,438,438h-2.19q1.17-9.84,1.33-13.09c1.74.13,3.66.23,5.74.28q11.69.27,16.72.27c.49,0,4.77-.06,12.81-.19q6.25-.09,7.5-.16c.39,0,1.12-.09,2.19-.2-.44,1.88-.81,3.57-1.09,5.08-.14.86-.5,3.53-1.1,8h-2.19c.06-2.21.08-3.55.08-4a18.57,18.57,0,0,0-.23-4,1,1,0,0,0-.47-.51,5.53,5.53,0,0,0-2-.39q-5.87-.42-12.5-.43c-.32,1.41-.74,3.7-1.29,6.88l-3.87,21.87q-2,12.31-2.46,16.37a19,19,0,0,0-.16,2,1.75,1.75,0,0,0,.39,1.31,3.49,3.49,0,0,0,1.76.57c.47.08,2.35.19,5.63.35l-.39,2.38q-8.13-.27-11.33-.27Q447,480.07,440.23,480.34Z" transform="translate(-88.45 -418.32)"/><path id="o-2" data-name="o" class="cls-1" d="M472.85,469.13a38.05,38.05,0,0,1,1-9,26.83,26.83,0,0,1,2.81-7.29,23,23,0,0,1,4.41-5.45,21.69,21.69,0,0,1,5.9-3.78,15.89,15.89,0,0,1,6.33-1.43,12.09,12.09,0,0,1,5.35,1.23,8.8,8.8,0,0,1,3.95,3.83,15.19,15.19,0,0,1,1.4,7.13,32.42,32.42,0,0,1-2.38,12,28.63,28.63,0,0,1-4.37,7.71,21.26,21.26,0,0,1-6.35,5,16.3,16.3,0,0,1-7.76,2.09,9.76,9.76,0,0,1-7.5-3Q472.86,475.2,472.85,469.13Zm6.21-.54a15.48,15.48,0,0,0,.82,5.7,6.24,6.24,0,0,0,2.48,3,7.44,7.44,0,0,0,4,1,7.36,7.36,0,0,0,4.39-1.32,13.56,13.56,0,0,0,3.67-4.89,28.86,28.86,0,0,0,2.64-8.38,51.76,51.76,0,0,0,.82-8.65q0-4.87-1.8-7.44a6,6,0,0,0-5.31-2.56q-5.62,0-8.65,6.72T479.06,468.59Z" transform="translate(-88.45 -418.32)"/><path id="M-2" data-name="M" class="cls-1" d="M577.66,478.21v-2.58c2.53-.15,4.09-.43,4.69-.82a2.82,2.82,0,0,0,1-1.25,120.68,120.68,0,0,0,4.41-13.16q.83-2.77,4.71-16.72t3.89-15.24a2.44,2.44,0,0,0-.73-1.75,4.67,4.67,0,0,0-2.44-1.1,30.22,30.22,0,0,0-4.73-.35l.43-2.46q5.63.2,7.74.2c1.82,0,3.67-.07,5.55-.2l11.95,46,18.4-31.8c1.61-2.79,2.93-5.13,3.94-7l3.75-7.19a62.45,62.45,0,0,0,7,.39,48.63,48.63,0,0,0,6.32-.39v2.27l-4.37.54a3.16,3.16,0,0,0-1.35.47,1.85,1.85,0,0,0-.6.82,27,27,0,0,0-.86,5.35q-.8,7.39-1.25,13.64l-1.1,15.7-.47,7.42c-.1,1.38-.15,2.34-.15,2.89,0,1.56.4,2.55,1.21,2.95s2.81.67,6,.8l-.23,2.58c-3.52-.26-6.86-.39-10-.39q-5,0-10.94.39v-2.58a21.3,21.3,0,0,0,5.9-.55,2.09,2.09,0,0,0,1.21-1.21,21.74,21.74,0,0,0,1-6l2.58-36.29q-2.19,3.31-5.32,8.67-5.51,9.3-13.82,23.83-2.67,4.61-5.24,9.47c-1.72,3.24-2.76,5.18-3.12,5.8h-1.8l-11.87-45.62q-6.92,24.06-8.79,31.95a56.89,56.89,0,0,0-1.57,7.62,1.78,1.78,0,0,0,1.18,1.83,30.12,30.12,0,0,0,5.74.47l-.2,2.58-4.41-.2c-2.53-.07-4.2-.11-5-.11Q584,477.9,577.66,478.21Z" transform="translate(-88.45 -418.32)"/><path id="y" class="cls-1" d="M653.88,492.66l3.86-2.61.82.27c0,.49-.08.9-.08,1.21a5.52,5.52,0,0,0,1.51,4,4.85,4.85,0,0,0,3.65,1.57,6.85,6.85,0,0,0,3-.73,8.12,8.12,0,0,0,2.79-2.2,27.37,27.37,0,0,0,3.67-6.39,110.16,110.16,0,0,0,4.5-12.79l3-10.86a58,58,0,0,1-5.82,7.54q-5.12,5.63-6.77,6.62a5.78,5.78,0,0,1-2.76,1,2.52,2.52,0,0,1-2.11-1.28,10,10,0,0,1-1.36-5.71q0-1.49.54-6.25a139.12,139.12,0,0,0,.94-15.08,18.68,18.68,0,0,0-.27-3.78,2,2,0,0,0-.55-1.1,1,1,0,0,0-.66-.23c-.78,0-2.43,1-4.93,2.89-.44.34-.76.57-1,.7L654.77,448a72.31,72.31,0,0,1,8.44-6.32,7.32,7.32,0,0,1,3.48-1.37,2.11,2.11,0,0,1,1.81,1c.46.65.69,2,.69,4q0,2.54-.71,10.7-.86,9.57-.86,13.87a5.36,5.36,0,0,0,.47,2.7,1.29,1.29,0,0,0,1.06.5,2.79,2.79,0,0,0,1.33-.35,16.21,16.21,0,0,0,3.53-2.93,34.57,34.57,0,0,0,3.89-4.84,45.34,45.34,0,0,0,5.15-10.31,127.28,127.28,0,0,0,3.56-12.89,41.51,41.51,0,0,0,5.9-1.49l.86.78a50,50,0,0,0-2.15,5.43q-1.85,5.31-5,16.33-2.58,8.94-3.87,12.7a67,67,0,0,1-4.94,11.71,34.41,34.41,0,0,1-6.23,8.05,18.69,18.69,0,0,1-5.49,3.85,13.18,13.18,0,0,1-5.21,1.19,7.52,7.52,0,0,1-3.4-.84,5.83,5.83,0,0,1-2.52-2.3,6.25,6.25,0,0,1-.84-3.15A5.37,5.37,0,0,1,653.88,492.66Z" transform="translate(-88.45 -418.32)"/><path id="P" class="cls-1" d="M763.44,476.21v-2.5a28,28,0,0,0,5.35-.55,2.29,2.29,0,0,0,1-.93q.62-1,2.22-9.34.43-2.22,3.6-21Q778,427.54,778,425.43a1.79,1.79,0,0,0-.74-1.68c-.76-.47-2.89-.74-6.41-.82l.16-2.15,5.86.16c2.08.05,4,.07,5.62.07s3.65,0,5.62-.07c3.29-.11,5.6-.16,7-.16q5.58,0,8.34,1.21a9.85,9.85,0,0,1,4.49,4.16,12.44,12.44,0,0,1,1.74,6.43,20.2,20.2,0,0,1-1.53,7.59,21.46,21.46,0,0,1-4,6.57,20.06,20.06,0,0,1-5.19,4.2,17,17,0,0,1-8,1.95,14,14,0,0,1-3.71-.45,14.91,14.91,0,0,1-3.4-1.43v-2.46a11.2,11.2,0,0,0,5.9,1.61,11.9,11.9,0,0,0,6.35-1.88,12.93,12.93,0,0,0,4.8-5.64,18.69,18.69,0,0,0,1.78-8,13.49,13.49,0,0,0-1.17-5.9A8,8,0,0,0,797.6,425a15.33,15.33,0,0,0-6.66-1.29,32.93,32.93,0,0,0-5.9.66l-2.62,14.18-3.63,20.32q-1.53,9.25-1.68,10.78c-.05.54-.08,1-.08,1.36a2.55,2.55,0,0,0,.47,1.66,3.14,3.14,0,0,0,1.88.83,50.88,50.88,0,0,0,5.66.41v2.3c-4.06-.18-7.36-.27-9.88-.27Q773.9,475.94,763.44,476.21Z" transform="translate(-88.45 -418.32)"/><path id="oo" class="cls-1" d="M812.73,465a38,38,0,0,1,1-9,27.16,27.16,0,0,1,2.81-7.29,22.63,22.63,0,0,1,4.42-5.45,21.57,21.57,0,0,1,5.9-3.79,15.79,15.79,0,0,1,6.32-1.42,12.09,12.09,0,0,1,5.35,1.23,8.73,8.73,0,0,1,4,3.82,15.08,15.08,0,0,1,1.41,7.13,32.43,32.43,0,0,1-2.39,12,28.59,28.59,0,0,1-4.37,7.72,21.14,21.14,0,0,1-6.35,5,16.3,16.3,0,0,1-7.75,2.09,9.73,9.73,0,0,1-7.5-3C813.67,472.06,812.73,469,812.73,465Zm6.22-.55a15.37,15.37,0,0,0,.82,5.71,6.06,6.06,0,0,0,2.48,3,8.06,8.06,0,0,0,8.36-.31,13.53,13.53,0,0,0,3.67-4.88,28.86,28.86,0,0,0,2.63-8.38,51.85,51.85,0,0,0,.82-8.65q0-4.89-1.79-7.44a6.07,6.07,0,0,0-5.32-2.56q-5.61,0-8.65,6.72T819,464.45Z" transform="translate(-88.45 -418.32)"/><path id="R" class="cls-1" d="M851.33,477.07l-.71-.55q2-6.6,3-10.94,2-8.47,2.93-15a42.84,42.84,0,0,0,.55-5.24,2.48,2.48,0,0,0-.31-1.44.69.69,0,0,0-.63-.32q-1.32,0-6.6,3.83l-.94-1.29a58,58,0,0,1,9.22-6.48,9.94,9.94,0,0,1,4.07-1.49,1.49,1.49,0,0,1,1.13.47,2.15,2.15,0,0,1,.43,1.45,24.54,24.54,0,0,1-.55,3.83q-.85,4.92-2.3,11.32a86.83,86.83,0,0,1,8.36-12.3,18.79,18.79,0,0,1,4.06-4,5.39,5.39,0,0,1,2.73-.82,3.48,3.48,0,0,1,1.56.43q-.66,3.43-1.32,8.63l-1.06.23a3.29,3.29,0,0,0-2.62-1.56,5.36,5.36,0,0,0-2.92,1.09,20.91,20.91,0,0,0-5.34,5.88,36.29,36.29,0,0,0-4.43,10.06q-.95,3.21-2.93,12.89C854.34,476.22,852.55,476.68,851.33,477.07Z" transform="translate(-88.45 -418.32)"/><path id="t-2" data-name="t" class="cls-1" d="M899,466.91l.9,1.41q-3.51,2.85-7,5.31a33.31,33.31,0,0,1-5.14,3.17,4.37,4.37,0,0,1-1.75.39,2.17,2.17,0,0,1-1.76-1,5.18,5.18,0,0,1-.74-3.15,17.11,17.11,0,0,1,.15-2.12c.11-.8.29-1.87.55-3.23l1.76-8q.9-4.26,2.77-14.42l-6.68.16.2-1.17c2.11-.81,3.54-1.38,4.31-1.7s1.66-.75,2.68-1.27c.39-2,.67-3.58.84-4.63s.56-4,1.19-8.85l3.4-1.44,2.73-1.37.94.7c-1,4.19-1.6,6.45-1.68,6.76q-.32,1.37-1.91,9.3c1.17.05,2.11.07,2.81.07a20.87,20.87,0,0,0,5.51-.5l.39.31-.94,3.83c-1.09,0-3.91-.07-8.44-.2q-.7,3.24-2.2,11c-1,5.19-1.66,9-2,11.31a16.66,16.66,0,0,0-.19,2.18,1.87,1.87,0,0,0,.43,1.35,1.38,1.38,0,0,0,1,.45,3,3,0,0,0,1.06-.2,17.07,17.07,0,0,0,2.85-1.64Z" transform="translate(-88.45 -418.32)"/><path id="f" class="cls-1" d="M907.54,446.09l.35-1.76a38.74,38.74,0,0,0,6.88-3.08q2-9.53,2.18-10.39a9.19,9.19,0,0,1,1.78-3.4,35.66,35.66,0,0,1,5.12-4.57,32.83,32.83,0,0,1,5.92-3.95,7.87,7.87,0,0,1,3.2-.62,13.83,13.83,0,0,1,5.08,1.05q-1.57,4.23-2.23,6.49l-.86.27a7,7,0,0,0-2.48-2.15,6.73,6.73,0,0,0-3.14-.78,5.67,5.67,0,0,0-3.11.82,6.1,6.1,0,0,0-2.05,2.27,24.82,24.82,0,0,0-1.68,5.78c-.86,4-1.52,7.23-2,9.73,3.3-.08,5.22-.15,5.74-.2A14.87,14.87,0,0,0,929,441l.36.47a41.15,41.15,0,0,0-1.37,4.61c-1.46-.08-2.76-.11-3.91-.11s-2.5,0-4.29.07l-4.65,21.8q-2.55,11.64-4.38,16.19a28,28,0,0,1-4.86,8,21.69,21.69,0,0,1-6.35,5.19,8.64,8.64,0,0,1-4.06,1.1,6.46,6.46,0,0,1-2.77-.74,56,56,0,0,0,1.83-6.41l1-.23a5,5,0,0,0,4,2.18,5.33,5.33,0,0,0,2.58-.66,7.46,7.46,0,0,0,2.38-2.34,20.58,20.58,0,0,0,2.31-6.06q2-7.38,3.86-18.59L914,446.05l-3.09,0C910,446,908.84,446,907.54,446.09Z" transform="translate(-88.45 -418.32)"/><path id="ooo" class="cls-1" d="M928.24,465a38,38,0,0,1,1-9,26.83,26.83,0,0,1,2.81-7.29,22.84,22.84,0,0,1,4.41-5.45,21.88,21.88,0,0,1,5.9-3.79,15.87,15.87,0,0,1,6.33-1.42,12.09,12.09,0,0,1,5.35,1.23,8.78,8.78,0,0,1,4,3.82,15.09,15.09,0,0,1,1.4,7.13,32.42,32.42,0,0,1-2.38,12,28.86,28.86,0,0,1-4.37,7.72,21.14,21.14,0,0,1-6.35,5,16.3,16.3,0,0,1-7.76,2.09,9.76,9.76,0,0,1-7.5-3C929.18,472.06,928.24,469,928.24,465Zm6.21-.55a15.58,15.58,0,0,0,.82,5.71,6.17,6.17,0,0,0,2.48,3,7.44,7.44,0,0,0,4,1,7.3,7.3,0,0,0,4.39-1.33,13.53,13.53,0,0,0,3.68-4.88,28.86,28.86,0,0,0,2.63-8.38,51.85,51.85,0,0,0,.82-8.65q0-4.89-1.79-7.44a6.07,6.07,0,0,0-5.32-2.56q-5.62,0-8.65,6.72T934.45,464.45Z" transform="translate(-88.45 -418.32)"/><path id="l-2" data-name="l" class="cls-1" d="M979.88,467.66l.67,1.6q-1,.9-4.77,3.61a32.84,32.84,0,0,1-6.09,3.69,5.19,5.19,0,0,1-2.11.51,2.13,2.13,0,0,1-1.74-.8,4,4,0,0,1-.64-2.52,15,15,0,0,1,.27-2.85q.39-2.36,3.71-17.07,2.39-10.54,3-13.79,1.56-7.94,2.22-12.78a13.31,13.31,0,0,0,.16-2.07,2,2,0,0,0-.53-1.54,3.56,3.56,0,0,0-2.16-.45l-3.6,0,.2-1.6a46.18,46.18,0,0,0,6.52-1.09,46.93,46.93,0,0,0,6-2l1,.62q-.78,3.56-5.7,26.76-4,18.8-4.57,23.05a8.13,8.13,0,0,0-.12,1.29,1.94,1.94,0,0,0,.39,1.28,1.1,1.1,0,0,0,.86.47,1.92,1.92,0,0,0,.78-.19,22.53,22.53,0,0,0,3-1.76Z" transform="translate(-88.45 -418.32)"/><path id="i" class="cls-1" d="M988,447.11l-.67-1.56a88.57,88.57,0,0,1,9.26-5.94,9.17,9.17,0,0,1,3.67-1.13,1.37,1.37,0,0,1,1.14.5,3.63,3.63,0,0,1,.54,2.15,9.28,9.28,0,0,1-.27,1.88c-.34,1.56-1,4.41-2.15,8.55q-4.26,15.82-4.26,18.67a1.87,1.87,0,0,0,.3,1.19,1,1,0,0,0,.8.38,4.8,4.8,0,0,0,2-.57,34.57,34.57,0,0,0,4.36-2.91l.78,1.56a73.23,73.23,0,0,1-9.53,6.49,5.93,5.93,0,0,1-2.54.78,2.25,2.25,0,0,1-1.74-.9,3.73,3.73,0,0,1-.76-2.5,16,16,0,0,1,.27-2.77q.27-1.53,1.37-5.51,4.56-16.41,4.57-20.31a2,2,0,0,0-.22-1.12.7.7,0,0,0-.6-.29,3.19,3.19,0,0,0-1.14.27Q992.82,444.19,988,447.11ZM998.05,425a5.28,5.28,0,0,1,1.36-3.69,4.17,4.17,0,0,1,3.13-1.51,2.87,2.87,0,0,1,2.17.84,3.28,3.28,0,0,1,.8,2.33,6.44,6.44,0,0,1-1.17,3.73,3.65,3.65,0,0,1-3.13,1.7,3,3,0,0,1-2.26-.94A3.39,3.39,0,0,1,998.05,425Z" transform="translate(-88.45 -418.32)"/><path id="oooo" class="cls-1" d="M1008.2,465a38,38,0,0,1,1-9,27.16,27.16,0,0,1,2.81-7.29,22.63,22.63,0,0,1,4.42-5.45,21.67,21.67,0,0,1,5.89-3.79,15.87,15.87,0,0,1,6.33-1.42,12.09,12.09,0,0,1,5.35,1.23,8.73,8.73,0,0,1,4,3.82,15.08,15.08,0,0,1,1.41,7.13,32.43,32.43,0,0,1-2.39,12,28.59,28.59,0,0,1-4.37,7.72,21.14,21.14,0,0,1-6.35,5,16.3,16.3,0,0,1-7.75,2.09,9.73,9.73,0,0,1-7.5-3C1009.14,472.06,1008.2,469,1008.2,465Zm6.21-.55a15.58,15.58,0,0,0,.82,5.71,6.17,6.17,0,0,0,2.48,3,7.44,7.44,0,0,0,4,1,7.3,7.3,0,0,0,4.39-1.33,13.42,13.42,0,0,0,3.68-4.88,28.86,28.86,0,0,0,2.63-8.38,51.85,51.85,0,0,0,.82-8.65q0-4.89-1.79-7.44a6.07,6.07,0,0,0-5.32-2.56q-5.62,0-8.65,6.72T1014.41,464.45Z" transform="translate(-88.45 -418.32)"/></g></svg>