<svg id="Layer_1" data-name="Layer 1" xmlns="http://www.w3.org/2000/svg" viewBox="0 0 811.81 82.84"><defs><style>.cls-1{fill:none;}</style></defs><title>Welcome3</title><g id="WELCOME"><path id="W" class="cls-1" d="M128.48,424.35q1.49,6.79,4.89,19.38,6.36,23.59,7.07,25.93.34-.78,7.81-19.49,3.83-9.65,6.05-15.9a39.44,39.44,0,0,0,1.57-4.88c0-.21,0-.4,0-.59a1.16,1.16,0,0,0-.69-1.07q-.67-.37-5.84-.57l.51-2.38c3.54.18,6.45.27,8.71.27s4.79-.09,7.35-.27l-.47,2.38a11.27,11.27,0,0,0-3.23.41,3.08,3.08,0,0,0-1,1q-.39.51-4.65,10.55-3.63,8.6-9.65,23.43-5,12.39-6.72,18.09h-3.86l-1.45-7q-1.09-4.77-4-15.78t-5.75-21.29q-2.46,4.49-17.3,33.32a76.21,76.21,0,0,0-4.73,10.7h-4Q99,474,96.92,454.78L95,437.36q-1-8.08-1.45-8.95a1.6,1.6,0,0,0-.66-.7,16,16,0,0,0-4.45-.55l.5-2.38q4.3.2,8.44.2c2.92,0,6.22-.07,9.92-.2l-.47,2.38a20.49,20.49,0,0,0-4.41.32,2.22,2.22,0,0,0-1.23.82,3.16,3.16,0,0,0-.37,1.75q0,.68.27,5,.44,6.45,1.1,12.15,1.64,14.81,2.34,21.88l7.93-15.39,6.64-13.05q3.28-6.53,5.35-10.9,1.1-2.34,2.46-5.43Z" transform="translate(-88.45 -422.44)"/><path id="E" class="cls-1" d="M184.73,471.38l.51,1.53a36.36,36.36,0,0,1-8.88,6.17,18.21,18.21,0,0,1-7.45,2.07,10,10,0,0,1-4.2-1,7.71,7.71,0,0,1-3.47-3.22,12.46,12.46,0,0,1-1.27-6.21,36.64,36.64,0,0,1,1.48-9.75,38.56,38.56,0,0,1,3-8,16.29,16.29,0,0,1,4.06-4.72,35.23,35.23,0,0,1,7.58-4.81,12.81,12.81,0,0,1,5.43-1.33,7.36,7.36,0,0,1,4.83,1.57,5.36,5.36,0,0,1,1.89,4.37,10.68,10.68,0,0,1-3.16,7.46,21.1,21.1,0,0,1-5.73,3.71,50.63,50.63,0,0,1-7.64,2.86l-5.07,1.21a35.76,35.76,0,0,0-.74,6.25q0,3.83,1.69,5.74a5.4,5.4,0,0,0,4.23,1.91,14,14,0,0,0,5.07-1.11A42.67,42.67,0,0,0,184.73,471.38Zm-17.85-10a33.22,33.22,0,0,0,8.6-2.71,12.55,12.55,0,0,0,5.21-4.34,9.19,9.19,0,0,0,1.62-4.9,4.31,4.31,0,0,0-1-3.05,3.43,3.43,0,0,0-2.6-1,9.1,9.1,0,0,0-4.59,1.35,9.65,9.65,0,0,0-3.73,4A60.87,60.87,0,0,0,166.88,461.34Z" transform="translate(-88.45 -422.44)"/><path id="L" class="cls-1" d="M207.31,471.66l.67,1.6q-1,.9-4.77,3.61a32.84,32.84,0,0,1-6.09,3.69,5.19,5.19,0,0,1-2.11.51,2.13,2.13,0,0,1-1.74-.8,4,4,0,0,1-.65-2.52,15,15,0,0,1,.28-2.85q.39-2.36,3.71-17.07,2.38-10.54,3-13.79,1.56-7.94,2.22-12.78a13.31,13.31,0,0,0,.16-2.07,2,2,0,0,0-.53-1.54,3.57,3.57,0,0,0-2.17-.45l-3.59,0,.2-1.6a46.18,46.18,0,0,0,6.52-1.09,46.93,46.93,0,0,0,6-2l1,.62q-.78,3.56-5.7,26.76-4,18.8-4.57,23.05a8.13,8.13,0,0,0-.12,1.29,1.94,1.94,0,0,0,.39,1.28,1.1,1.1,0,0,0,.86.47,1.92,1.92,0,0,0,.78-.19,22.53,22.53,0,0,0,3-1.76Z" transform="translate(-88.45 -422.44)"/><path id="C" class="cls-1" d="M240.24,471.11l.59,1.72a75.24,75.24,0,0,1-6.29,4.72,27.11,27.11,0,0,1-6,3,12.87,12.87,0,0,1-4.26.71,10.89,10.89,0,0,1-5.07-1.18,7.74,7.74,0,0,1-3.47-3.9,16.48,16.48,0,0,1-1.22-6.76,36.44,36.44,0,0,1,1.14-8.85,27.74,27.74,0,0,1,3-7.58,18.26,18.26,0,0,1,3.66-4.55,36.14,36.14,0,0,1,9-5.35,13.33,13.33,0,0,1,5.35-1.17,12.57,12.57,0,0,1,3.67.51,10,10,0,0,1,3.09,1.56,84.88,84.88,0,0,0-1.8,10.08h-1.84l0-4.26a3.27,3.27,0,0,0-.43-1.91,4.54,4.54,0,0,0-2.17-1.37,10.88,10.88,0,0,0-3.88-.63,9.85,9.85,0,0,0-6.43,2c-1.63,1.32-3,3.89-4.24,7.69a41.9,41.9,0,0,0-2.22,12.27,11.85,11.85,0,0,0,1.36,6.29,6.1,6.1,0,0,0,5.51,3,11.76,11.76,0,0,0,3.54-.56,21.44,21.44,0,0,0,4.2-1.94Q236.49,473.77,240.24,471.11Z" transform="translate(-88.45 -422.44)"/><path id="O" class="cls-1" d="M246,469a38,38,0,0,1,1-9,27.16,27.16,0,0,1,2.81-7.29,22.63,22.63,0,0,1,4.42-5.45,21.67,21.67,0,0,1,5.89-3.79,15.87,15.87,0,0,1,6.33-1.42,12.09,12.09,0,0,1,5.35,1.23,8.73,8.73,0,0,1,3.95,3.82,15.08,15.08,0,0,1,1.41,7.13,32.43,32.43,0,0,1-2.39,12A28.59,28.59,0,0,1,270.4,474a21.14,21.14,0,0,1-6.35,5,16.27,16.27,0,0,1-7.75,2.09,9.73,9.73,0,0,1-7.5-3C246.92,476.06,246,473,246,469Zm6.22-.55a15.37,15.37,0,0,0,.82,5.71,6.06,6.06,0,0,0,2.48,3,8.06,8.06,0,0,0,8.36-.31,13.53,13.53,0,0,0,3.67-4.88,28.86,28.86,0,0,0,2.63-8.38,51.85,51.85,0,0,0,.82-8.65q0-4.89-1.79-7.44a6.07,6.07,0,0,0-5.31-2.56q-5.64,0-8.66,6.72T252.2,468.45Z" transform="translate(-88.45 -422.44)"/><path id="M" class="cls-1" d="M284.15,480.68l-.55-.67,2.23-8q1.25-4.77,2.19-9.26,1.2-5.79,1.79-10.12a24.92,24.92,0,0,0,.28-3.05,2.78,2.78,0,0,0-.34-1.58,1,1,0,0,0-.8-.45,4.07,4.07,0,0,0-1.72.63,37.05,37.05,0,0,0-4.41,2.69l-.55-1.68c1.25-1,3-2.19,5.14-3.61a32.19,32.19,0,0,1,5.45-3,6.15,6.15,0,0,1,1.95-.39,1.68,1.68,0,0,1,1.27.47,2.08,2.08,0,0,1,.45,1.48,16.37,16.37,0,0,1-.31,2.7c-.05.36-.84,4.14-2.34,11.33a68.52,68.52,0,0,1,6.32-7.74,38.57,38.57,0,0,1,8.79-6.6,11.81,11.81,0,0,1,5.28-1.56,2,2,0,0,1,1.44.43,1.74,1.74,0,0,1,.47,1.33,23.88,23.88,0,0,1-.43,4q-.31,1.68-2.27,10.27a52,52,0,0,1,8.11-9,37.47,37.47,0,0,1,8.61-5.64,13,13,0,0,1,5-1.37,2,2,0,0,1,1.45.47,2,2,0,0,1,.47,1.48,19.52,19.52,0,0,1-.51,3.6q-.86,4.14-3.36,13.4-2.93,10.89-2.93,13.2a1.85,1.85,0,0,0,.33,1.19,1,1,0,0,0,.76.41,2.93,2.93,0,0,0,1.14-.27,12.85,12.85,0,0,0,2.3-1.25l3.05-2.11.62,1.52a60.72,60.72,0,0,1-5.13,3.75,33.13,33.13,0,0,1-5.41,3.09,4.92,4.92,0,0,1-1.8.39,2.11,2.11,0,0,1-1.6-.78,3.15,3.15,0,0,1-.71-2.19,12.76,12.76,0,0,1,.16-2c.1-.63.45-2,1-4s1.51-5.67,2.79-10.8q1.56-6.41,2-9.18c.27-1.84.41-2.93.41-3.24a1.63,1.63,0,0,0-.33-1.09,1,1,0,0,0-.8-.39,8.77,8.77,0,0,0-3.36,1.21,24,24,0,0,0-5.35,4.12,29.08,29.08,0,0,0-8.21,13.32,113.45,113.45,0,0,0-2.93,13.65c-1.58.26-3.41.64-5.46,1.13l-.55-.54q1.83-6.53,3.57-14.2t2.41-12.36a40.3,40.3,0,0,0,.46-4.54,2,2,0,0,0-.39-1.32.92.92,0,0,0-.78-.36,5.76,5.76,0,0,0-2.61.86,21.31,21.31,0,0,0-5.2,4,32.06,32.06,0,0,0-8.44,14.65q-1.37,4.84-2.77,12.57Q286.5,480.13,284.15,480.68Z" transform="translate(-88.45 -422.44)"/><path id="e-2" data-name="e" class="cls-1" d="M368.41,471.38l.5,1.53a36.36,36.36,0,0,1-8.88,6.17,18.21,18.21,0,0,1-7.44,2.07,9.9,9.9,0,0,1-4.2-1,7.78,7.78,0,0,1-3.48-3.22,12.46,12.46,0,0,1-1.27-6.21,36.64,36.64,0,0,1,1.48-9.75,38.56,38.56,0,0,1,3-8,16.18,16.18,0,0,1,4.07-4.72,35.17,35.17,0,0,1,7.57-4.81,12.81,12.81,0,0,1,5.43-1.33,7.36,7.36,0,0,1,4.83,1.57,5.36,5.36,0,0,1,1.89,4.37,10.68,10.68,0,0,1-3.16,7.46,20.79,20.79,0,0,1-5.73,3.71,50.63,50.63,0,0,1-7.64,2.86l-5.07,1.21a36.77,36.77,0,0,0-.74,6.25q0,3.83,1.69,5.74a5.42,5.42,0,0,0,4.23,1.91,14,14,0,0,0,5.07-1.11A43,43,0,0,0,368.41,471.38Zm-17.86-10a33.22,33.22,0,0,0,8.6-2.71,12.55,12.55,0,0,0,5.21-4.34,9.19,9.19,0,0,0,1.62-4.9,4.31,4.31,0,0,0-1-3.05,3.43,3.43,0,0,0-2.6-1,9.1,9.1,0,0,0-4.59,1.35,9.65,9.65,0,0,0-3.73,4A60.87,60.87,0,0,0,350.55,461.34Z" transform="translate(-88.45 -422.44)"/><path id="T" class="cls-1" d="M440.23,480.34l.2-2.38c3.57-.21,5.7-.49,6.41-.86a1.52,1.52,0,0,0,.62-.58c.37-.58,1-3.42,2-8.52q.75-3.87,3.63-20.55,2-11.06,2.82-18.79-4.92,0-11.25.24a9.69,9.69,0,0,0-3.64.55,2.47,2.47,0,0,0-.93,1.21A55.33,55.33,0,0,0,438,438h-2.19q1.17-9.84,1.33-13.09c1.74.13,3.66.23,5.74.28q11.69.27,16.72.27c.49,0,4.77-.06,12.81-.19q6.25-.09,7.5-.16c.39,0,1.12-.09,2.19-.2-.44,1.88-.81,3.57-1.09,5.08-.14.86-.5,3.53-1.1,8h-2.19c.06-2.21.08-3.55.08-4a18.57,18.57,0,0,0-.23-4,1,1,0,0,0-.47-.51,5.53,5.53,0,0,0-2-.39q-5.87-.42-12.5-.43c-.32,1.41-.74,3.7-1.29,6.88l-3.87,21.87q-2,12.31-2.46,16.37a19,19,0,0,0-.16,2,1.75,1.75,0,0,0,.39,1.31,3.49,3.49,0,0,0,1.76.57c.47.08,2.35.19,5.63.35l-.39,2.38q-8.13-.27-11.33-.27Q447,480.07,440.23,480.34Z" transform="translate(-88.45 -422.44)"/><path id="o-2" data-name="o" class="cls-1" d="M472.85,469.13a38.05,38.05,0,0,1,1-9,26.83,26.83,0,0,1,2.81-7.29,23,23,0,0,1,4.41-5.45,21.69,21.69,0,0,1,5.9-3.78,15.89,15.89,0,0,1,6.33-1.43,12.09,12.09,0,0,1,5.35,1.23,8.8,8.8,0,0,1,3.95,3.83,15.19,15.19,0,0,1,1.4,7.13,32.42,32.42,0,0,1-2.38,12,28.63,28.63,0,0,1-4.37,7.71,21.26,21.26,0,0,1-6.35,5,16.3,16.3,0,0,1-7.76,2.09,9.76,9.76,0,0,1-7.5-3Q472.86,475.2,472.85,469.13Zm6.21-.54a15.48,15.48,0,0,0,.82,5.7,6.24,6.24,0,0,0,2.48,3,7.44,7.44,0,0,0,4,1,7.36,7.36,0,0,0,4.39-1.32,13.56,13.56,0,0,0,3.67-4.89,28.86,28.86,0,0,0,2.64-8.38,51.76,51.76,0,0,0,.82-8.65q0-4.87-1.8-7.44a6,6,0,0,0-5.31-2.56q-5.62,0-8.65,6.72T479.06,468.59Z" transform="translate(-88.45 -422.44)"/><path id="M-2" data-name="M" class="cls-1" d="M567.66,483.21v-2.58c2.53-.15,4.09-.43,4.69-.82a2.82,2.82,0,0,0,1-1.25,120.68,120.68,0,0,0,4.41-13.16q.83-2.77,4.71-16.72t3.89-15.24a2.44,2.44,0,0,0-.73-1.75,4.67,4.67,0,0,0-2.44-1.1,30.22,30.22,0,0,0-4.73-.35l.43-2.46q5.63.2,7.74.2c1.82,0,3.67-.07,5.55-.2l11.95,46,18.4-31.8c1.61-2.79,2.93-5.13,3.94-7l3.75-7.19a62.45,62.45,0,0,0,7,.39,48.63,48.63,0,0,0,6.32-.39v2.27l-4.37.54a3.16,3.16,0,0,0-1.35.47,1.85,1.85,0,0,0-.6.82,27,27,0,0,0-.86,5.35q-.8,7.39-1.25,13.64l-1.1,15.7-.47,7.42c-.1,1.38-.15,2.34-.15,2.89,0,1.56.4,2.55,1.21,2.95s2.81.67,6,.8l-.23,2.58c-3.52-.26-6.86-.39-10-.39q-5,0-10.94.39v-2.58a21.3,21.3,0,0,0,5.9-.55,2.09,2.09,0,0,0,1.21-1.21,21.74,21.74,0,0,0,1-6l2.58-36.29q-2.19,3.31-5.32,8.67-5.51,9.3-13.82,23.83-2.67,4.61-5.24,9.47c-1.72,3.24-2.76,5.18-3.12,5.8h-1.8l-11.87-45.62q-6.92,24.06-8.79,31.95a56.89,56.89,0,0,0-1.57,7.62,1.78,1.78,0,0,0,1.18,1.83,30.12,30.12,0,0,0,5.74.47l-.2,2.58-4.41-.2c-2.53-.07-4.2-.11-5-.11Q574,482.9,567.66,483.21Z" transform="translate(-88.45 -422.44)"/><path id="y" class="cls-1" d="M643.88,497.66l3.86-2.61.82.27c0,.49-.08.9-.08,1.21a5.52,5.52,0,0,0,1.51,4,4.85,4.85,0,0,0,3.65,1.57,6.85,6.85,0,0,0,3-.73,8.12,8.12,0,0,0,2.79-2.2,27.37,27.37,0,0,0,3.67-6.39,110.16,110.16,0,0,0,4.5-12.79l3-10.86a58,58,0,0,1-5.82,7.54q-5.12,5.63-6.77,6.62a5.78,5.78,0,0,1-2.76,1,2.52,2.52,0,0,1-2.11-1.28,10,10,0,0,1-1.36-5.71q0-1.49.54-6.25a139.12,139.12,0,0,0,.94-15.08,18.68,18.68,0,0,0-.27-3.78,2,2,0,0,0-.55-1.1,1,1,0,0,0-.66-.23c-.78,0-2.43,1-4.93,2.89-.44.34-.76.57-1,.7L644.77,453a72.31,72.31,0,0,1,8.44-6.32,7.32,7.32,0,0,1,3.48-1.37,2.11,2.11,0,0,1,1.81,1c.46.65.69,2,.69,4q0,2.54-.71,10.7-.86,9.57-.86,13.87a5.36,5.36,0,0,0,.47,2.7,1.29,1.29,0,0,0,1.06.5,2.79,2.79,0,0,0,1.33-.35,16.21,16.21,0,0,0,3.53-2.93,34.57,34.57,0,0,0,3.89-4.84,45.34,45.34,0,0,0,5.15-10.31,127.28,127.28,0,0,0,3.56-12.89,41.51,41.51,0,0,0,5.9-1.49l.86.78a50,50,0,0,0-2.15,5.43q-1.85,5.31-5,16.33-2.58,8.94-3.87,12.7a67,67,0,0,1-4.94,11.71,34.41,34.41,0,0,1-6.23,8.05,18.69,18.69,0,0,1-5.49,3.85,13.18,13.18,0,0,1-5.21,1.19,7.52,7.52,0,0,1-3.4-.84,5.83,5.83,0,0,1-2.52-2.3,6.25,6.25,0,0,1-.84-3.15A5.37,5.37,0,0,1,643.88,497.66Z" transform="translate(-88.45 -422.44)"/><path id="S" class="cls-1" d="M744.83,482.94c.47-1.85.84-3.57,1.11-5.14s.51-3.48.72-5.73h2l.14,7a14.88,14.88,0,0,0,4,2.36,16,16,0,0,0,5.45.88q6.43,0,9.48-3.69a12.49,12.49,0,0,0,3-8.09,8.62,8.62,0,0,0-.58-3.2,6.36,6.36,0,0,0-1.51-2.34,7.31,7.31,0,0,0-2.31-1.4,35.76,35.76,0,0,0-4.85-1.32,29.94,29.94,0,0,1-7.38-2.39,8.39,8.39,0,0,1-3.43-3.57,12.19,12.19,0,0,1-1.21-5.68A15.57,15.57,0,0,1,755,438.89q5.41-5,14-5a18.79,18.79,0,0,1,4.78.54,17.31,17.31,0,0,1,4.15,1.78c-.33,1.31-.6,2.58-.83,3.81s-.51,3.21-.86,5.93h-2.07v-5.45a8.61,8.61,0,0,0-3.39-2.43,13.67,13.67,0,0,0-10.6.56,9.53,9.53,0,0,0-4,4,11.62,11.62,0,0,0-1.41,5.58,9,9,0,0,0,.95,4.3,6.29,6.29,0,0,0,2.69,2.69,29.4,29.4,0,0,0,6.36,2,39.92,39.92,0,0,1,5.89,1.62A9.68,9.68,0,0,1,774,461a8.71,8.71,0,0,1,1.88,3,11.11,11.11,0,0,1,.61,3.83,14.64,14.64,0,0,1-1.12,5.78,17.52,17.52,0,0,1-3.38,5.08,23.48,23.48,0,0,1-4.74,4A19.93,19.93,0,0,1,762,485a22.06,22.06,0,0,1-6.07.77,23,23,0,0,1-5.89-.7A22.36,22.36,0,0,1,744.83,482.94Z" transform="translate(-88.45 -422.44)"/><path id="t-2" data-name="t" class="cls-1" d="M800.2,476.19l.81,1.26c-2.11,1.71-4.21,3.31-6.31,4.78a30,30,0,0,1-4.62,2.85,4,4,0,0,1-1.58.35,1.93,1.93,0,0,1-1.58-.86,4.64,4.64,0,0,1-.67-2.83,13.74,13.74,0,0,1,.14-1.91c.09-.72.26-1.69.49-2.91l1.58-7.2q.81-3.84,2.5-13l-6,.14.17-1.06c1.9-.73,3.2-1.23,3.89-1.53s1.49-.67,2.41-1.14q.52-2.75.75-4.17t1.07-8l3.06-1.3,2.46-1.23.85.63-1.51,6.08q-.29,1.23-1.73,8.37c1.06.05,1.9.07,2.53.07a18.48,18.48,0,0,0,5-.46l.35.29-.84,3.44q-1.49,0-7.6-.17-.63,2.91-2,9.93c-.9,4.67-1.5,8.07-1.78,10.17a16.59,16.59,0,0,0-.17,2,1.75,1.75,0,0,0,.38,1.22,1.27,1.27,0,0,0,.95.4,2.75,2.75,0,0,0,1-.18,15.09,15.09,0,0,0,2.57-1.47Z" transform="translate(-88.45 -422.44)"/><path id="o-3" data-name="o" class="cls-1" d="M806.53,474.46a34.35,34.35,0,0,1,.92-8.1A24.45,24.45,0,0,1,810,459.8a20.47,20.47,0,0,1,4-4.9,19.44,19.44,0,0,1,5.31-3.41,14.19,14.19,0,0,1,5.69-1.28,11,11,0,0,1,4.82,1.1,7.89,7.89,0,0,1,3.55,3.45,13.5,13.5,0,0,1,1.27,6.41A29.22,29.22,0,0,1,832.44,472a26.08,26.08,0,0,1-3.93,6.95,19.12,19.12,0,0,1-5.72,4.53,14.67,14.67,0,0,1-7,1.88,8.8,8.8,0,0,1-6.75-2.72C807.38,480.82,806.53,478.1,806.53,474.46Zm5.59-.49a13.84,13.84,0,0,0,.74,5.13,5.55,5.55,0,0,0,2.23,2.68,7.31,7.31,0,0,0,7.53-.28,12.29,12.29,0,0,0,3.3-4.4,26.1,26.1,0,0,0,2.37-7.54,46.09,46.09,0,0,0,.74-7.79q0-4.39-1.61-6.69a5.48,5.48,0,0,0-4.79-2.31q-5.05,0-7.78,6.05T812.12,474Z" transform="translate(-88.45 -422.44)"/><path id="r" class="cls-1" d="M841.27,485.33l-.64-.5q1.77-5.94,2.68-9.84c1.17-5.08,2.05-9.6,2.63-13.53a39.79,39.79,0,0,0,.5-4.71,2.28,2.28,0,0,0-.29-1.31.61.61,0,0,0-.56-.28q-1.2,0-5.94,3.45l-.84-1.16a52.17,52.17,0,0,1,8.29-5.84,8.9,8.9,0,0,1,3.66-1.33,1.33,1.33,0,0,1,1,.42,1.85,1.85,0,0,1,.39,1.3,21.42,21.42,0,0,1-.5,3.44q-.76,4.44-2.07,10.2a77.22,77.22,0,0,1,7.52-11.07,17.61,17.61,0,0,1,3.66-3.63,4.86,4.86,0,0,1,2.46-.73,3.18,3.18,0,0,1,1.41.38q-.6,3.11-1.2,7.77l-1,.21a3,3,0,0,0-2.35-1.4,4.83,4.83,0,0,0-2.64,1,18.65,18.65,0,0,0-4.8,5.29,32.61,32.61,0,0,0-4,9.06q-.84,2.88-2.64,11.6Q842.92,484.8,841.27,485.33Z" transform="translate(-88.45 -422.44)"/><path id="y-2" data-name="y" class="cls-1" d="M864.72,497.56l3.48-2.35.74.24a10.5,10.5,0,0,0-.08,1.09,5,5,0,0,0,1.36,3.59,4.41,4.41,0,0,0,3.29,1.4,6.17,6.17,0,0,0,2.65-.65,7.29,7.29,0,0,0,2.51-2,24.85,24.85,0,0,0,3.31-5.75,100.12,100.12,0,0,0,4-11.51l2.71-9.78a52.07,52.07,0,0,1-5.24,6.79q-4.61,5.06-6.1,6a5.23,5.23,0,0,1-2.48.89,2.24,2.24,0,0,1-1.9-1.16,8.91,8.91,0,0,1-1.23-5.13c0-.89.17-2.77.49-5.63a124.44,124.44,0,0,0,.85-13.57,16.24,16.24,0,0,0-.25-3.41,1.78,1.78,0,0,0-.49-1,.88.88,0,0,0-.6-.21q-1,0-4.43,2.6a9.29,9.29,0,0,1-.88.63l-1-1.26a66,66,0,0,1,7.6-5.7,6.53,6.53,0,0,1,3.13-1.23,1.91,1.91,0,0,1,1.63.88,7,7,0,0,1,.62,3.59q0,2.28-.64,9.63-.76,8.61-.77,12.48a4.83,4.83,0,0,0,.42,2.43,1.15,1.15,0,0,0,1,.45,2.55,2.55,0,0,0,1.2-.31,15,15,0,0,0,3.18-2.64,31.33,31.33,0,0,0,3.5-4.36,41,41,0,0,0,4.64-9.28,117.21,117.21,0,0,0,3.2-11.6,37.26,37.26,0,0,0,5.31-1.34l.77.7a45,45,0,0,0-1.93,4.89q-1.67,4.78-4.54,14.7-2.32,8-3.48,11.42a60.37,60.37,0,0,1-4.45,10.55,31.09,31.09,0,0,1-5.6,7.24,16.7,16.7,0,0,1-4.94,3.46,11.81,11.81,0,0,1-4.7,1.08,6.72,6.72,0,0,1-3.06-.76,5.18,5.18,0,0,1-2.26-2.07,5.56,5.56,0,0,1-.76-2.83A4.72,4.72,0,0,1,864.72,497.56Z" transform="translate(-88.45 -422.44)"/></g></svg>